<?xml version="1.0" encoding="utf-8"?>
<!-- Generator: Adobe Illustrator 27.5.0, SVG Export Plug-In . SVG Version: 6.00 Build 0)  -->
<svg version="1.1" id="Capa_2" xmlns="http://www.w3.org/2000/svg" xmlns:xlink="http://www.w3.org/1999/xlink" x="0px" y="0px"
	 viewBox="0 0 1898 2372" style="enable-background:new 0 0 1898 2372;" xml:space="preserve">
<path style="fill:#FDC321;" d="M1371.027,862.84h-21.53c0.844-3.387,1.431-6.914,1.431-10.646c0-1.488-0.071-2.976-0.211-4.464
	c-1.758-17.942-14.203-31.946-29.108-31.946h-11.789c6.268-77.312-27.837-156.81-95.781-214.018
	c-53.875-45.363-125.115-76.091-183.913-117.642c-30.151-21.307-57.441-47.461-74.776-76.023
	c14.141-3.047,24.744-15.61,24.744-30.662c0-4.446-0.937-8.669-2.605-12.502c22.759-10.817,38.572-33.965,38.572-60.796
	c0-37.133-30.211-67.343-67.344-67.343c-37.139,0-67.349,30.21-67.349,67.343c0,26.831,15.811,49.978,38.571,60.796
	c-1.668,3.833-2.605,8.056-2.605,12.502c0,15.052,10.603,27.615,24.744,30.662c-17.336,28.563-44.624,54.717-74.776,76.023
	c-58.798,41.551-130.038,72.279-183.913,117.642c-67.944,57.208-102.047,136.706-95.78,214.018h-11.788
	c-8.086,0-15.398,4.114-20.671,10.678c-4.57,5.602-7.664,13.041-8.438,21.356c-0.142,1.488-0.211,2.888-0.211,4.376
	c0,3.699,0.456,7.272,1.291,10.646h-21.455c-10.211,0-18.488,8.278-18.488,18.488v1141.379c0,10.211,8.277,18.488,18.488,18.488
	h52.643c-3.006,5.426-4.773,11.987-4.773,19.07c0,1.385,0.065,2.771,0.196,4.156c1.637,16.706,13.224,29.745,27.104,29.745h8.172
	c-0.867,3.128-1.44,6.428-1.44,9.923c0,1.26,0.058,2.52,0.177,3.778c1.488,15.188,12.023,27.042,24.642,27.042h631.312
	c6.845,0,13.035-3.482,17.499-9.039c3.868-4.742,6.488-11.039,7.141-18.077c0.12-1.26,0.178-2.445,0.178-3.704
	c0-3.47-0.489-6.8-1.35-9.923h8.081c7.529,0,14.338-3.83,19.247-9.942c4.257-5.215,7.137-12.142,7.858-19.885
	c0.131-1.385,0.196-2.689,0.196-4.074c0-7.05-1.762-13.62-4.756-19.07h52.56c10.211,0,18.489-8.277,18.489-18.488V881.328
	C1389.516,871.118,1381.238,862.84,1371.027,862.84z M892.524,304.142c0-30.981,25.209-56.187,56.193-56.187
	s56.188,25.207,56.188,56.187c0,22.981-13.882,42.758-33.69,51.453c-5.703-5.872-13.67-9.534-22.501-9.534
	c-8.831,0-16.796,3.661-22.498,9.533C906.407,346.897,892.524,327.121,892.524,304.142z"/>
<path style="fill:#F0A500;" d="M892.523,304.142c0-30.981,25.21-56.187,56.193-56.187c30.983,0,56.187,25.207,56.187,56.187
	c0,22.981-13.882,42.757-33.691,51.453c2.617,2.694,4.755,5.851,6.275,9.344c22.761-10.817,38.571-33.966,38.571-60.796
	c0-37.133-30.21-67.343-67.343-67.343c-37.139,0-67.349,30.21-67.349,67.343c0,26.831,15.811,49.979,38.573,60.796
	c1.52-3.493,3.658-6.65,6.275-9.344C906.409,346.897,892.523,327.121,892.523,304.142z"/>
<path style="fill:#FDC300;" d="M955.35,408.101c14.141-3.047,24.744-15.61,24.744-30.662c0-4.446-0.937-8.669-2.605-12.502
	c-1.52-3.493-3.658-6.65-6.275-9.344c-5.702-5.872-13.667-9.534-22.5-9.534c-8.832,0-16.797,3.661-22.499,9.533
	c-2.617,2.694-4.755,5.851-6.275,9.344c-1.668,3.833-2.605,8.056-2.605,12.502c0,15.052,10.603,27.615,24.742,30.662
	c2.141,0.461,4.357,0.718,6.636,0.718C950.992,408.819,953.209,408.563,955.35,408.101z"/>
<path style="fill:#F2B200;" d="M1349.497,862.84c0.844-3.387,1.431-6.914,1.431-10.646c0-1.488-0.071-2.976-0.211-4.464
	c-1.758-17.942-14.202-31.946-29.108-31.946H575.821c-8.086,0-15.398,4.114-20.671,10.678c-4.57,5.602-7.664,13.041-8.437,21.356
	c-0.142,1.488-0.211,2.888-0.211,4.376c0,3.699,0.456,7.272,1.292,10.646H1349.497z"/>
<path style="fill:#EFB102;" d="M578.979,2041.195c-3.005,5.426-4.771,11.987-4.771,19.07c0,1.385,0.065,2.771,0.196,4.156
	c1.637,16.706,13.226,29.745,27.104,29.745h8.174c-0.867,3.128-1.441,6.428-1.441,9.923c0,1.26,0.058,2.52,0.178,3.778
	c1.487,15.188,12.022,27.042,24.64,27.042h631.312c6.845,0,13.036-3.482,17.499-9.039c3.869-4.742,6.488-11.039,7.141-18.077
	c0.12-1.26,0.178-2.445,0.178-3.704c0-3.47-0.49-6.8-1.351-9.923h8.083c7.528,0,14.337-3.83,19.248-9.942
	c4.256-5.215,7.136-12.142,7.856-19.885c0.131-1.385,0.196-2.689,0.196-4.074c0-7.05-1.761-13.62-4.755-19.07H578.979z"/>
<rect x="741.084" y="862.84" style="fill:#F5A80F;" width="415.196" height="1178.355"/>
<path style="fill:#C37D11;" d="M817.265,1840.477c13.722,16.439,33.898,26.899,53.895,36.126
	c19.995,9.226,40.759,17.897,57.198,31.988c8.651,7.418,15.944,16.748,20.323,26.905c4.381-10.157,11.674-19.487,20.326-26.905
	c16.437-14.091,37.2-22.762,57.198-31.988c19.996-9.228,40.173-19.687,53.892-36.126c11.744-14.071,17.621-33.593,12.132-50.276
	h13.779v-660.042h-13.779c5.489-16.684-0.388-36.205-12.132-50.276c-13.719-16.44-33.896-26.9-53.892-36.126
	c-19.998-9.226-40.761-17.897-57.198-31.988c-8.652-7.418-15.945-16.748-20.326-26.905c-4.379,10.157-11.672,19.487-20.323,26.905
	c-16.439,14.091-37.203,22.762-57.198,31.988c-19.997,9.227-40.173,19.687-53.895,36.126c-11.744,14.071-17.62,33.592-12.132,50.276
	h-13.776v660.042h13.776C799.645,1806.884,805.522,1826.406,817.265,1840.477z"/>
<path style="fill:#C37D11;" d="M1336.494,1011.768c-16.437,14.091-37.201,22.762-57.198,31.988
	c-19.995,9.227-40.173,19.687-53.893,36.126c-11.744,14.071-17.622,33.593-12.132,50.277h-13.776V1790.2h13.776
	c-5.489,16.684,0.388,36.206,12.132,50.277c13.72,16.439,33.898,26.899,53.893,36.126c19.997,9.226,40.761,17.897,57.198,31.988
	c7.414,6.357,13.705,14.163,18.146,22.645V989.123C1350.199,997.605,1343.908,1005.411,1336.494,1011.768z"/>
<path style="fill:#C37D11;" d="M673.624,1079.881c-13.72-16.439-33.898-26.899-53.893-36.126
	c-19.996-9.226-40.761-17.897-57.198-31.988c-7.414-6.357-13.705-14.162-18.146-22.645v942.113
	c4.441-8.482,10.732-16.288,18.146-22.645c16.437-14.09,37.202-22.761,57.198-31.988c19.995-9.228,40.173-19.687,53.893-36.126
	c11.744-14.071,17.622-33.593,12.132-50.277h13.776v-660.042h-13.776C691.245,1113.474,685.368,1093.953,673.624,1079.881z"/>
<path style="fill:#FDC321;" d="M815.287,968.786c12.853,0,23.27-10.418,23.27-23.27c0-12.852-10.418-23.27-23.27-23.27
	c-12.851,0-23.269,10.418-23.269,23.27C792.018,958.367,802.436,968.786,815.287,968.786z"/>
<path style="fill:#FDC321;" d="M1082.077,968.786c12.853,0,23.27-10.418,23.27-23.27c0-12.852-10.418-23.27-23.27-23.27
	c-12.851,0-23.27,10.418-23.27,23.27C1058.807,958.367,1069.226,968.786,1082.077,968.786z"/>
<path style="fill:#FDC321;" d="M815.287,1948.018c-12.851,0-23.269,10.418-23.269,23.27c0,12.852,10.418,23.271,23.269,23.271
	c12.853,0,23.27-10.418,23.27-23.271C838.557,1958.437,828.139,1948.018,815.287,1948.018z"/>
<path style="fill:#FDC321;" d="M1082.077,1948.018c-12.851,0-23.27,10.418-23.27,23.27c0,12.852,10.419,23.271,23.27,23.271
	c12.853,0,23.27-10.418,23.27-23.271C1105.347,1958.437,1094.93,1948.018,1082.077,1948.018z"/>
<path style="fill:#E2A203;" d="M633.535,2117.129c-9.761,0-18.63-3.556-25.117-9.261c1.488,15.188,12.023,27.042,24.64,27.042
	h631.314c6.844,0,13.034-3.482,17.497-9.039c3.869-4.742,6.488-11.039,7.143-18.077c-6.428,5.779-15.356,9.335-25.117,9.335H633.535
	z"/>
<path style="fill:#FAB620;" d="M966.939,466.435c9.606,23.314,21.518,46.883,36.378,68.515
	c14.577,21.216,33.303,40.144,53.648,58.22c35.911,31.904,81.954,59.423,109.006,96.655c24.297,33.442,34.325,77.481,15.708,113.946
	c-2.178,4.264-4.794,8.244-7.713,12.014h90.435c8.213-33.252,1.572-70.157-10.503-101.29
	c-16.569-42.721-52.305-79.838-91.535-111.834c-44.281-36.115-95.49-66.696-135.795-105.712
	c-19.344-18.725-35.957-38.945-49.907-60.329l0.015,0.015c-8.029-9.18-15.082-18.755-21.05-28.604
	c-1.122,0.252-2.259,0.455-3.422,0.583C953.996,428.248,959.23,447.727,966.939,466.435z"/>
<path style="fill:#FAB620;" d="M587.608,781.273c-0.204,2.815-0.356,5.631-0.457,8.449
	C587.252,786.905,587.403,784.087,587.608,781.273z"/>
<path style="fill:#FAB620;" d="M655.828,812.528c1.705,1.137,3.506,2.148,5.232,3.258h110.987
	c-50.817-27.167-93.583-63.207-122.544-105.721c-9.458-13.883-17.265-28.132-23.598-42.653
	c-16.481,26.054-27.892,54.05-33.925,82.711l-0.166,0.774c-0.388,1.876-0.721,3.758-1.065,5.639
	C609.783,776.971,631.129,796.064,655.828,812.528z"/>
<path style="fill:#FAB620;" d="M587.058,792.361c-0.025,1.019-0.052,2.038-0.062,3.057c-0.023,2.211-0.018,4.422,0.025,6.632
	l0.003,0.967C586.944,799.466,586.971,795.913,587.058,792.361z"/>
<path style="fill:#FAB620;" d="M590.624,757.201c-1.083,6.056-1.935,12.135-2.535,18.229c-0.109,1.107-0.203,2.214-0.296,3.321
	l-0.002,0.033C588.397,771.568,589.338,764.367,590.624,757.201z"/>
<path style="fill:#FAB620;" d="M587.747,815.786c-0.268-3.382-0.502-6.767-0.617-10.156c0.089,2.584,0.141,5.168,0.32,7.748
	l0.065,0.986l0.146,1.422H587.747z"/>
<path style="fill:#F5A80F;" d="M1026.568,496.949c40.305,39.016,91.514,69.597,135.795,105.712
	c39.229,31.996,74.965,69.114,91.535,111.834c12.075,31.133,18.716,68.039,10.503,101.29h45.42
	c6.267-77.313-27.836-156.811-95.78-214.019c-33.673-28.351-74.128-50.987-114.088-74.12c-23.977-13.88-47.775-27.94-69.826-43.522
	c-4.591-3.244-9.089-6.626-13.511-10.089c-1.174-0.918-2.31-1.873-3.47-2.805c-3.331-2.681-6.615-5.405-9.82-8.2
	c-1.122-0.979-2.225-1.966-3.329-2.959c-3.335-2.995-6.591-6.046-9.751-9.157c-0.788-0.775-1.587-1.542-2.364-2.323
	c-3.881-3.911-7.645-7.889-11.205-11.959l-0.015-0.015C990.611,458.004,1007.224,478.224,1026.568,496.949z"/>
<path style="fill:#F2B200;" d="M943.689,408.38c1.641,0.265,3.31,0.44,5.026,0.44c1.181,0,2.342-0.078,3.488-0.205
	c1.163-0.128,2.3-0.331,3.422-0.583c6.901-1.553,12.952-5.357,17.303-10.631c1.28-1.55,2.413-3.224,3.379-5.003
	c0.966-1.778,1.765-3.66,2.377-5.626c0.611-1.965,1.035-4.013,1.248-6.123c0.108-1.055,0.162-2.125,0.162-3.208
	c0-1.153-0.068-2.288-0.192-3.406l-0.094-0.618c-0.124-0.943-0.271-1.878-0.478-2.791l-0.073-0.286
	c-0.394-1.661-0.927-3.267-1.575-4.813c-0.546-1.301-1.21-2.537-1.922-3.742l-0.375-0.686c-0.8-1.281-1.695-2.495-2.662-3.647
	l-0.23-0.283c-1.037-1.205-2.157-2.338-3.361-3.379c0.479,2.181,0.771,4.43,0.771,6.754c0,17.331-14.048,31.379-31.378,31.379
	c-7.814,0-14.869-2.963-20.362-7.688l-0.056-0.041l0.158,0.507c0.316,1.33,0.728,2.621,1.208,3.88l0.373,1.008
	c0.642,1.524,1.377,3,2.239,4.391c0.911,1.467,1.943,2.853,3.076,4.146l0.096,0.107c2.233,2.527,4.874,4.681,7.81,6.381l0.284,0.172
	c1.374,0.777,2.825,1.431,4.317,1.996l0.73,0.267c1.472,0.514,2.99,0.929,4.554,1.22L943.689,408.38z"/>
<path style="fill:#FDCE32;" d="M956.077,351.468c-5.04-5.477-15.779-3.795-23.985,3.757c-8.206,7.552-10.773,18.114-5.733,23.591
	c5.041,5.477,15.779,3.795,23.985-3.757C958.551,367.508,961.117,356.945,956.077,351.468z"/>
<path style="fill:#FFE384;" d="M937.267,354.093c-4.501,3.752-6.381,8.916-4.198,11.534c2.183,2.618,7.601,1.699,12.101-2.053
	c4.502-3.752,6.381-8.916,4.198-11.534C947.186,349.422,941.767,350.341,937.267,354.093z"/>
<path style="fill:#FFE567;" d="M735.116,722.664c10.897,6.525,23.436,8.398,34.758,6.864c11.322-1.533,21.552-6.26,30.849-12.095
	c40.613-25.484,64.037-71.228,80.169-118.318c7.569-22.096,13.841-44.813,20.6-67.296c5.565-18.51,12.667-36.124,18.909-54.232
	c0.373-1.084-1.107-2.19-1.856-1.379c-7.796,8.434-19.875,21.261-28.034,28.909c-31.457,29.488-64.586,52.759-101.922,74.856
	c-17.341,10.263-35.807,18.991-51.371,31.671c-15.563,12.68-28.302,30.089-30.488,51.632
	C704.543,684.818,715.135,710.699,735.116,722.664z M751.897,644.585c1.414-13.943,9.659-25.211,19.732-33.417
	c10.073-8.207,22.024-13.856,33.248-20.499c24.165-14.301,45.607-29.363,65.967-48.448c5.28-4.95,13.096-13.251,18.143-18.711
	c0.485-0.525,1.442,0.191,1.201,0.893c-4.039,11.719-8.636,23.119-12.238,35.099c-4.372,14.551-8.433,29.255-13.332,43.555
	c-10.441,30.478-25.601,60.084-51.887,76.578c-6.018,3.776-12.638,6.836-19.966,7.829c-7.328,0.992-15.444-0.22-22.497-4.443
	C757.337,675.278,750.482,658.527,751.897,644.585z"/>
<path style="fill:#FDF4AE;" d="M770.269,683.021c7.053,4.224,15.169,5.435,22.497,4.443c7.328-0.992,13.948-4.052,19.966-7.829
	c26.285-16.494,41.446-46.1,51.887-76.578c4.899-14.301,8.959-29.004,13.332-43.555c3.602-11.98,8.199-23.38,12.238-35.099
	c0.241-0.702-0.716-1.418-1.201-0.893c-5.047,5.459-12.863,13.761-18.143,18.711c-20.36,19.085-41.801,34.147-65.967,48.448
	c-11.224,6.643-23.175,12.292-33.248,20.499c-10.073,8.207-18.319,19.474-19.732,33.417
	C750.482,658.527,757.337,675.278,770.269,683.021z"/>
<path style="fill:#F5A80F;" d="M587.747,815.786h73.313c-1.726-1.109-3.528-2.121-5.232-3.258
	c-24.699-16.464-46.045-35.557-65.079-55.992l-0.017-0.018l-0.108,0.683c-1.286,7.166-2.227,14.367-2.832,21.583l-0.003,0.031
	l-0.119,1.336l-0.061,1.123c-0.205,2.815-0.356,5.632-0.457,8.449l-0.016,0.308c-0.027,0.777-0.057,1.554-0.076,2.331
	c-0.087,3.552-0.114,7.105-0.035,10.655c0.019,0.872,0.077,1.742,0.107,2.614C587.245,809.019,587.479,812.403,587.747,815.786z"/>
<path style="fill:#FDC300;" d="M1321.046,836.791c11.532,0,22.007,4.201,29.671,10.94l0.002,0.001
	c-1.039-10.605-5.829-19.805-12.636-25.579c-4.71-3.995-10.378-6.366-16.474-6.366H575.822c-4.043,0-7.893,1.028-11.391,2.877
	c-1.749,0.924-3.41,2.054-4.964,3.362c-1.554,1.309-2.999,2.797-4.317,4.438c-4.57,5.601-7.664,13.041-8.437,21.356
	c7.593-6.827,18.141-11.028,29.672-11.028H1321.046z"/>
<path style="fill:#E2A203;" d="M602.031,2074.608c-10.736,0-20.49-3.912-27.626-10.187c1.636,16.707,13.224,29.745,27.104,29.745
	h694.414c7.53,0,14.337-3.83,19.248-9.942c4.256-5.216,7.136-12.143,7.856-19.885c-7.07,6.357-16.89,10.268-27.628,10.268H602.031z"
	/>
<path style="fill:#A56115;" d="M805.134,1790.201c-1.373,4.171-2.034,8.518-2.071,12.915c-0.038,4.396,0.549,8.84,1.675,13.202
	c0.562,2.182,1.261,4.342,2.081,6.467c2.465,6.372,6.044,12.415,10.448,17.692c13.72,16.44,33.897,26.899,53.893,36.126
	c14.997,6.92,30.426,13.527,44.138,22.343c4.571,2.938,8.951,6.122,13.06,9.645c4.326,3.709,8.311,7.896,11.764,12.425
	c3.451,4.53,6.371,9.401,8.56,14.48c2.189-5.078,5.108-9.95,8.56-14.48c3.454-4.529,7.44-8.717,11.766-12.425
	c16.437-14.091,37.2-22.761,57.198-31.988c2.424-1.118,4.849-2.257,7.266-3.421c3.721-1.789,7.396-3.671,11.028-5.618
	c2.759-1.478,5.469-3.015,8.134-4.613c10.362-6.219,19.908-13.421,27.463-22.474c1.169-1.399,2.258-2.863,3.285-4.372
	c1.027-1.51,1.99-3.065,2.903-4.647c7.366-12.747,10.341-27.89,5.944-41.256v-0.001h13.777v-23.914
	c-6.158,2.814-12.535,5.197-19.144,7.022c-27.652,7.635-57.265,4.966-84.363-3.599c-47.196-14.918-88.364-48.298-118.755-86.775
	c-57.545-72.856-79.685-167.321-82.371-258.6c-2.746-93.321,12.817-187.985,44.18-275.884c14.774-41.406,33.54-81.678,56.356-119.31
	v0c-9.996,5.263-20.47,9.873-30.752,14.617c-8.292,3.826-16.59,7.898-24.471,12.488c-8.747,5.093-16.978,10.832-23.987,17.744
	l-0.424,0.459c-1.743,1.743-3.43,3.539-5.011,5.435c-8.808,10.553-14.317,24.172-14.204,37.361
	c0.037,4.396,0.698,8.744,2.071,12.915h-13.777v660.042L805.134,1790.201L805.134,1790.201z"/>
<path style="fill:#A56115;" d="M1256.704,1696.284c-1.214-2.17-2.272-4.403-3.396-6.609c-4.22-6.765-7.903-13.835-10.913-21.134
	c-10.881-26.393-15.285-54.829-17.863-83.189c-5.724-39.913-7.475-80.32-7.154-120.611c0.331-41.628,3.677-83.047,5.051-124.622
	c1.183-35.763,0.907-71.587,3.795-107.277c2.797-34.56,8.41-69.681,21.98-101.802c5.856-13.863,13.003-27.193,22.312-39.041
	c7.312-9.306,15.597-17.791,23.911-26.193c18.418-18.613,38.42-36.911,51.778-59.7c2.414-4.118,4.326-8.295,5.794-12.498
	l0.151-0.378c-2.063,3.386-4.397,6.643-6.969,9.715l-0.594,0.673c-1.089,1.272-2.212,2.517-3.384,3.717
	c-1.518,1.535-3.075,3.033-4.711,4.436c-16.437,14.091-37.201,22.762-57.198,31.989c-19.995,9.226-40.173,19.687-53.893,36.126
	c-11.744,14.071-17.622,33.593-12.132,50.276h-13.776v660.042h13.776c-5.489,16.684,0.388,36.205,12.132,50.276
	c13.72,16.44,33.898,26.899,53.893,36.126c19.997,9.227,40.761,17.897,57.198,31.988c7.414,6.357,13.705,14.162,18.146,22.645
	v-133.573C1316.139,1769.65,1280.259,1738.341,1256.704,1696.284z"/>
<path style="fill:#A56115;" d="M673.625,1079.882c-13.72-16.439-33.897-26.9-53.893-36.126
	c-19.997-9.227-40.761-17.898-57.198-31.989c-1.635-1.402-3.192-2.901-4.711-4.436c-1.17-1.197-2.29-2.44-3.377-3.709l-0.602-0.682
	c-2.571-3.071-4.905-6.328-6.967-9.713l0.152,0.378c1.467,4.202,3.38,8.38,5.793,12.498c13.358,22.79,33.36,41.087,51.778,59.7
	c8.314,8.402,16.599,16.888,23.91,26.193c9.31,11.849,16.456,25.179,22.312,39.041c13.571,32.121,19.184,67.243,21.981,101.802
	c2.888,35.69,2.612,71.514,3.795,107.277c1.374,41.575,4.72,82.994,5.051,124.622c0.321,40.291-1.43,80.698-7.154,120.611
	c-2.578,28.36-6.982,56.796-17.863,83.189c-3.01,7.299-6.694,14.369-10.913,21.134c-1.124,2.207-2.182,4.439-3.396,6.609
	c-23.555,42.057-59.436,73.366-97.936,101.38v133.573c4.441-8.482,10.732-16.288,18.146-22.645
	c16.437-14.091,37.201-22.761,57.198-31.988c19.995-9.227,40.173-19.687,53.893-36.126c11.744-14.071,17.622-33.592,12.133-50.276
	h13.776v-660.042h-13.776C691.246,1113.475,685.369,1093.953,673.625,1079.882z"/>
<path style="fill:#E99207;" d="M815.288,968.786c-10.678,0-19.579-7.232-22.317-17.034c-0.275,1.546-0.41,3.138-0.354,4.771
	c0.433,12.521,10.934,22.32,23.454,21.888c12.522-0.432,22.321-10.934,21.888-23.455c-0.037-1.039-0.241-2.025-0.41-3.022
	C834.748,961.642,825.898,968.786,815.288,968.786z"/>
<path style="fill:#F8B511;" d="M792.971,951.752c2.738,9.802,11.639,17.034,22.317,17.034c10.61,0,19.46-7.144,22.261-16.851
	c0.591-2.052,1.009-4.176,1.009-6.419c0-1.619-0.168-3.198-0.483-4.724l-0.248-0.8c-0.302-1.233-0.643-2.451-1.133-3.598
	l-0.008-0.027l-0.003,0.006c-2.998,9.385-11.783,16.185-22.163,16.185c-9.55,0-17.743-5.759-21.33-13.988l-0.068-0.133l-0.358,1.508
	l-0.321,1.353c-0.255,1.372-0.425,2.772-0.425,4.218c0,1.607,0.162,3.175,0.472,4.69
	C792.601,950.742,792.826,951.23,792.971,951.752z"/>
<path style="fill:#FFD365;" d="M811.407,939.732c4.955-2.401,7.68-7.011,6.088-10.297c-1.593-3.286-6.9-4.003-11.854-1.603
	c-4.956,2.401-7.681,7.011-6.089,10.297C801.146,941.416,806.453,942.133,811.407,939.732z"/>
<path style="fill:#E99207;" d="M1086.769,968.313c-1.514,0.31-3.083,0.473-4.69,0.473c-10.677,0-19.577-7.232-22.317-17.034
	c-0.275,1.546-0.411,3.138-0.354,4.771c0.432,12.521,10.934,22.32,23.455,21.888c12.52-0.432,22.319-10.934,21.888-23.455
	c-0.035-1.039-0.241-2.025-0.411-3.022C1101.963,960.172,1095.258,966.576,1086.769,968.313z"/>
<path style="fill:#F8B511;" d="M1082.079,968.786c1.607,0,3.176-0.162,4.69-0.473c8.49-1.737,15.195-8.141,17.57-16.378
	c0.592-2.052,1.011-4.176,1.011-6.419l-0.088-0.855c-0.048-1.313-0.139-2.616-0.396-3.864l-0.303-0.978
	c-0.297-1.171-0.613-2.334-1.079-3.427l-0.008-0.026l-0.003,0.006c-2.997,9.385-11.782,16.185-22.161,16.185
	c-9.55,0-17.743-5.759-21.328-13.988l-0.07-0.133c-0.157,0.489-0.234,1.009-0.359,1.512l-0.319,1.345
	c-0.254,1.373-0.426,2.775-0.426,4.222c0,2.175,0.395,4.239,0.953,6.236C1062.501,961.554,1071.402,968.786,1082.079,968.786z"/>
<path style="fill:#E99207;" d="M824.347,1992.73c-2.785,1.177-5.846,1.828-9.059,1.828c-1.606,0-3.174-0.162-4.69-0.472
	c-1.514-0.31-2.975-0.768-4.369-1.356c-6.467-2.735-11.344-8.353-13.258-15.206c-0.275,1.547-0.41,3.139-0.354,4.772
	c0.433,12.521,10.934,22.32,23.454,21.888c12.522-0.433,22.321-10.934,21.888-23.454c-0.037-1.039-0.241-2.025-0.41-3.021
	c-1.104,3.828-3.065,7.294-5.807,10.035C829.638,1989.849,827.13,1991.552,824.347,1992.73z"/>
<path style="fill:#F8B511;" d="M838.075,1966.564l-0.242-0.775c-0.302-1.242-0.646-2.468-1.14-3.623l-0.008-0.026l-0.003,0.006
	c-2.998,9.385-11.783,16.185-22.163,16.185c-9.55,0-17.743-5.759-21.33-13.988l-0.068-0.133l-0.358,1.507l-0.321,1.353
	c-0.255,1.372-0.425,2.772-0.425,4.219c0,1.606,0.162,3.175,0.472,4.689c0.11,0.537,0.335,1.024,0.481,1.546
	c1.914,6.853,6.791,12.471,13.258,15.206c1.393,0.588,2.855,1.046,4.369,1.356c1.516,0.31,3.085,0.472,4.69,0.472
	c3.212,0,6.274-0.651,9.059-1.828c2.783-1.178,5.291-2.882,7.396-4.987c2.741-2.742,4.702-6.207,5.807-10.035
	c0.591-2.052,1.009-4.177,1.009-6.419C838.558,1969.67,838.39,1968.09,838.075,1966.564z"/>
<path style="fill:#FFD365;" d="M811.407,1965.505c4.955-2.401,7.68-7.011,6.088-10.297c-1.593-3.285-6.9-4.003-11.854-1.602
	c-4.956,2.401-7.681,7.011-6.089,10.297C801.146,1967.189,806.453,1967.906,811.407,1965.505z"/>
<path style="fill:#FFD365;" d="M1080.571,1965.505c4.956-2.401,7.681-7.011,6.089-10.297c-1.594-3.285-6.901-4.003-11.855-1.602
	c-4.955,2.401-7.68,7.011-6.088,10.297C1070.31,1967.189,1075.617,1967.906,1080.571,1965.505z"/>
<path style="fill:#E99207;" d="M1095.419,1990.312c-3.782,2.658-8.367,4.246-13.34,4.246c-3.214,0-6.274-0.651-9.058-1.828
	c-2.784-1.178-5.291-2.882-7.396-4.987c-2.786-2.786-4.771-6.316-5.862-10.219c-0.275,1.547-0.411,3.139-0.354,4.772
	c0.432,12.521,10.934,22.32,23.455,21.888c12.52-0.433,22.319-10.934,21.888-23.454c-0.035-1.039-0.241-2.025-0.411-3.021
	C1102.851,1982.865,1099.704,1987.301,1095.419,1990.312z"/>
<path style="fill:#F8B511;" d="M1105.261,1970.438c-0.048-1.314-0.139-2.619-0.396-3.868l-0.296-0.954
	c-0.298-1.18-0.618-2.351-1.087-3.451l-0.008-0.025l-0.003,0.006c-2.997,9.385-11.782,16.185-22.161,16.185
	c-9.55,0-17.743-5.76-21.328-13.988l-0.07-0.133l-0.358,1.51l-0.32,1.346c-0.254,1.373-0.426,2.775-0.426,4.223
	c0,2.175,0.395,4.239,0.953,6.235c1.091,3.903,3.076,7.433,5.862,10.219c2.106,2.106,4.612,3.809,7.396,4.987
	c2.784,1.177,5.844,1.828,9.058,1.828c4.973,0,9.558-1.589,13.34-4.246c4.286-3.012,7.432-7.448,8.92-12.604
	c0.592-2.052,1.011-4.177,1.011-6.419L1105.261,1970.438z"/>
<path style="fill:#FFD365;" d="M1079.871,939.303c4.954-2.401,7.681-7.011,6.087-10.297c-1.592-3.286-6.899-4.003-11.854-1.602
	c-4.954,2.401-7.679,7.011-6.087,10.297C1069.609,940.987,1074.917,941.704,1079.871,939.303z"/>
</svg>
